<svg version="1.0" xmlns="http://www.w3.org/2000/svg" width="1280.000000pt" height="651.000000pt" viewBox="0 0 1280.000000 651.000000" preserveAspectRatio="xMidYMid meet">

<g transform="translate(0.000000,651.000000) scale(0.100000,-0.100000)" fill="#cbcbcb" stroke="none">
<path d="M3898 6455 c-3 -3 -23 -6 -44 -6 -64 -2 -286 -103 -404 -184 -25 -17 -50 -31 -56 -30 -20 0 -201 -177 -225 -220 -12 -22 -26 -42 -30 -45 -4 -3 -26 -44 -49 -92 -24 -51 -49 -89 -60 -93 -20 -6 -60 -95 -112 -245 l-30 -85 2 -280 c1 -194 6 -305 16 -365 83 -483 439 -940 865 -1109 100 -40 182 -58 299 -65 97 -5 99 6 4 19 -103 14 -172 44 -236 103 -34 32 -58 51 -54 43 12 -20 -27 -5 -91 33 -37 22 -51 36 -47 48 3 10 -2 19 -15 23 -11 3 -36 24 -55 45 -20 22 -45 40 -56 40 -20 0 -90 91 -90 117 0 7 -4 12 -8 11 -20 -6 -126 146 -118 168 3 7 2 14 -2 14 -15 0 -43 58 -32 65 8 5 7 12 -3 23 -16 18 -57 97 -57 109 0 4 5 2 12 -5 19 -19 30 -14 22 11 -16 50 -54 96 -86 105 -25 6 -39 19 -60 57 -15 28 -27 61 -27 75 -1 48 -18 145 -31 175 -18 39 -16 219 3 385 13 115 18 132 61 218 30 60 45 100 41 113 -5 14 11 40 60 100 106 125 218 214 298 233 15 3 27 11 27 16 0 5 -8 7 -17 3 -16 -6 -15 -3 2 16 32 36 96 69 150 76 28 3 57 11 65 16 11 7 6 8 -14 3 -21 -5 -27 -4 -22 5 4 6 12 11 17 11 6 0 48 18 94 41 74 37 94 42 191 50 190 16 335 -6 469 -71 189 -92 359 -315 403 -529 10 -48 16 -137 17 -241 2 -188 -12 -253 -65 -302 -21 -19 -30 -36 -30 -58 0 -34 -11 -46 -119 -136 -65 -54 -108 -74 -80 -36 7 9 -2 3 -21 -14 -47 -42 -70 -53 -159 -75 -93 -23 -139 -24 -216 -4 -159 42 -309 183 -348 328 -43 161 -46 194 -21 278 50 172 192 287 367 297 97 6 170 -10 231 -48 58 -37 59 -26 1 20 -62 49 -167 89 -235 90 -136 1 -243 -55 -332 -172 -102 -133 -141 -265 -119 -406 21 -136 81 -236 204 -338 38 -33 78 -66 87 -75 50 -47 247 -79 371 -60 156 24 271 80 389 189 55 50 69 59 73 45 3 -10 5 -4 6 14 0 18 9 48 18 68 16 33 18 34 35 18 17 -15 18 -15 18 5 0 11 16 53 35 93 19 41 35 88 35 105 0 44 23 87 38 72 9 -9 12 -5 12 19 0 17 7 50 15 73 13 38 13 44 0 54 -13 10 -22 66 -15 91 2 6 -1 21 -7 35 -6 14 -13 36 -17 50 -6 23 -6 23 7 8 24 -30 25 -21 8 53 -13 55 -21 74 -37 80 -21 7 -37 50 -25 66 3 5 19 10 34 11 26 2 31 -4 57 -61 30 -63 30 -62 15 32 -2 16 0 31 6 33 34 11 -100 228 -206 333 -65 65 -218 181 -186 142 8 -10 11 -20 8 -24 -4 -3 -26 14 -49 38 -42 43 -44 44 -103 42 -48 -1 -72 4 -120 26 -73 35 -202 74 -215 66 -5 -3 -53 -8 -107 -10 -55 -3 -92 -1 -85 4 16 10 -68 23 -95 15 -16 -5 -16 -4 1 10 19 15 19 16 -10 16 -17 0 -33 -2 -36 -5z" fill="#cbcbcb"/>
<path d="M2937 5845 c-3 -16 0 -24 7 -22 14 4 21 47 8 47 -5 0 -12 -11 -15 -25z" fill="#cbcbcb"/>
<path d="M7137 5662 l-57 -58 60 -59 60 -59 60 59 60 59 -57 58 c-32 32 -60 58 -63 58 -3 0 -31 -26 -63 -58z" fill="#cbcbcb"/>
<path d="M6555 5658 c-27 -11 -70 -23 -95 -27 -32 -5 -44 -11 -41 -22 2 -8 10 -36 18 -64 11 -39 13 -144 12 -495 l-1 -445 48 -13 c27 -7 96 -14 154 -15 111 -1 158 12 232 64 49 35 102 127 124 215 23 97 26 275 5 349 -43 149 -166 221 -287 166 -49 -22 -76 -50 -105 -105 l-21 -41 6 228 c3 125 5 227 3 226 -1 -1 -24 -10 -52 -21z m254 -437 c37 -40 52 -90 58 -201 13 -230 -59 -356 -199 -348 l-53 3 -9 85 c-12 110 5 348 29 408 23 56 57 82 107 82 31 0 46 -6 67 -29z" fill="#cbcbcb"/>
<path d="M5737 5655 c-21 -8 -61 -17 -88 -21 -53 -7 -55 -10 -34 -38 11 -15 15 -48 15 -122 l0 -102 -37 9 c-58 13 -127 11 -180 -7 -148 -50 -211 -184 -200 -428 8 -187 57 -297 153 -345 86 -44 206 -16 245 57 l17 34 7 -54 7 -53 85 0 84 0 -5 25 c-23 106 -28 213 -24 620 1 242 1 440 -2 439 -3 0 -22 -7 -43 -14z m-138 -386 l33 -12 -4 -231 c-2 -194 -6 -236 -20 -262 -35 -64 -131 -71 -179 -14 -70 82 -87 339 -31 448 37 72 117 100 201 71z" fill="#cbcbcb"/>
<path d="M2867 5627 c-11 -29 -9 -53 4 -40 6 6 9 21 7 34 -3 21 -4 22 -11 6z" fill="#cbcbcb"/>
<path d="M8175 5378 c-27 -9 -67 -17 -89 -18 -32 0 -37 -3 -31 -17 24 -60 27 -102 27 -378 1 -165 -2 -318 -6 -340 l-7 -40 91 0 c90 0 91 0 85 23 -10 41 -5 523 5 563 20 75 83 113 154 95 52 -13 57 -41 56 -346 0 -153 -3 -292 -6 -307 l-5 -28 95 0 c82 0 95 2 89 15 -4 8 -9 164 -12 345 -6 307 -7 332 -26 365 -64 111 -269 103 -336 -12 l-24 -43 -5 70 -5 70 -50 -17z" fill="#cbcbcb"/>
<path d="M6050 5375 c-97 -31 -165 -121 -190 -253 -19 -93 -8 -271 20 -347 30 -80 105 -155 181 -181 58 -19 187 -24 270 -11 l46 8 7 61 c3 34 4 63 3 65 -2 2 -21 -4 -42 -13 -58 -24 -167 -20 -224 8 -64 32 -101 95 -108 182 l-6 66 194 2 194 3 3 64 c7 155 -37 282 -115 328 -56 32 -163 41 -233 18z m141 -102 c38 -23 54 -65 54 -143 l0 -65 -120 0 -120 0 4 55 c9 139 90 207 182 153z" fill="#cbcbcb"/>
<path d="M7250 5381 c-8 -5 -47 -14 -87 -21 l-72 -12 17 -26 c15 -23 17 -60 17 -337 0 -170 -3 -330 -7 -355 l-7 -45 95 0 94 0 -7 45 c-5 25 -8 206 -8 403 0 231 -4 357 -10 357 -5 0 -17 -4 -25 -9z" fill="#cbcbcb"/>
<path d="M7570 5382 c-65 -11 -172 -53 -166 -66 3 -6 13 -35 22 -63 19 -56 25 -61 44 -38 34 41 201 71 251 45 30 -17 49 -64 49 -126 l0 -56 -43 6 c-57 9 -179 -9 -226 -33 -48 -25 -95 -78 -112 -128 -19 -54 -17 -170 5 -226 19 -50 71 -103 112 -113 13 -4 52 -4 84 -2 68 5 98 22 146 86 30 38 32 39 38 19 3 -12 6 -41 6 -64 l0 -41 84 1 c81 2 84 3 72 22 -7 13 -13 125 -16 335 -3 173 -9 324 -14 335 -15 34 -59 76 -96 91 -40 17 -174 26 -240 16z m198 -470 c-6 -135 -54 -202 -145 -202 -48 0 -78 25 -92 77 -14 47 -14 68 -1 115 18 63 80 94 194 97 l48 1 -4 -88z" fill="#cbcbcb"/>
<path d="M4560 5316 c0 -14 5 -28 10 -31 6 -4 10 7 10 24 0 17 -4 31 -10 31 -5 0 -10 -11 -10 -24z" fill="#cbcbcb"/>
<path d="M4475 5114 c-9 -14 -15 -27 -13 -30 2 -2 12 10 22 26 21 37 15 40 -9 4z" fill="#cbcbcb"/>
<path d="M4497 5082 c-19 -20 -23 -37 -7 -27 10 6 33 45 27 45 -2 0 -11 -8 -20 -18z" fill="#cbcbcb"/>
<path d="M4225 4971 c8 -14 61 -24 85 -16 38 12 20 25 -36 25 -31 0 -53 -4 -49 -9z" fill="#cbcbcb"/>
<path d="M3770 4930 c6 -11 13 -20 16 -20 2 0 0 9 -6 20 -6 11 -13 20 -16 20 -2 0 0 -9 6 -20z" fill="#cbcbcb"/>
<path d="M3710 4895 c0 -16 76 -125 86 -125 4 0 0 10 -8 23 -8 12 -27 43 -42 70 -30 50 -36 56 -36 32z" fill="#cbcbcb"/>
<path d="M3790 4842 c6 -13 38 -50 72 -82 119 -116 351 -206 472 -183 l51 10 -60 2 c-90 2 -193 27 -239 58 -23 15 -57 35 -76 44 -19 9 -48 27 -65 40 -57 47 -70 53 -41 21 17 -18 26 -32 21 -32 -6 0 -41 33 -78 73 -38 39 -64 62 -57 49z" fill="#cbcbcb"/>
<path d="M1107 4142 c-115 -115 -137 -142 -137 -167 0 -27 56 -86 448 -477 346 -345 455 -448 484 -457 80 -26 76 -29 566 455 409 404 452 449 452 478 0 28 -18 50 -138 169 -102 100 -145 137 -163 137 -18 0 -94 -70 -319 -296 -168 -168 -309 -302 -328 -310 -30 -14 -36 -13 -65 5 -18 11 -162 151 -322 311 -227 227 -295 290 -315 290 -19 0 -59 -34 -163 -138z" fill="#cbcbcb"/>
<path d="M9214 3850 c-264 -22 -500 -132 -670 -313 -119 -127 -191 -262 -239 -451 -60 -238 -56 -554 10 -811 37 -141 136 -307 247 -410 254 -238 613 -318 1113 -249 124 17 323 78 332 100 10 26 -17 222 -43 312 -14 48 -43 123 -65 167 l-39 81 -98 -33 c-128 -42 -224 -56 -352 -51 -172 8 -275 58 -350 171 -59 88 -81 169 -87 318 -9 211 32 354 126 442 115 108 291 148 516 116 72 -10 198 -39 237 -54 39 -15 121 226 139 410 7 62 9 120 6 127 -5 16 -185 79 -287 103 -65 14 -303 36 -370 34 -19 -1 -76 -5 -126 -9z" fill="#cbcbcb"/>
<path d="M4427 3823 l-98 -16 4 -716 c4 -777 5 -791 63 -953 43 -120 91 -196 178 -284 167 -166 363 -228 761 -241 265 -8 554 31 818 112 l87 26 0 662 c0 364 -3 827 -7 1029 l-6 366 -61 12 c-114 22 -382 24 -515 5 l-121 -18 0 -789 c0 -742 -1 -789 -17 -796 -10 -4 -65 -7 -123 -7 -133 0 -196 21 -260 85 -92 91 -99 158 -100 926 l0 582 -62 12 c-103 20 -426 22 -541 3z" fill="#cbcbcb"/>
<path d="M10310 3824 c-25 -2 -78 -6 -117 -10 -45 -3 -73 -10 -73 -17 0 -7 178 -488 396 -1070 347 -925 400 -1060 421 -1068 80 -30 395 -35 574 -8 l76 11 407 1063 c223 584 406 1067 406 1073 0 6 -39 14 -87 19 -113 10 -574 8 -633 -4 l-44 -8 -23 -80 c-13 -44 -84 -298 -158 -565 -74 -267 -146 -521 -159 -565 l-24 -80 -17 60 c-10 33 -95 323 -190 645 l-173 585 -38 7 c-44 9 -476 18 -544 12z" fill="#cbcbcb"/>
<path d="M6798 3753 c-8 -37 -13 -125 -13 -238 0 -113 5 -201 13 -237 l13 -58 210 0 210 0 -3 -412 -3 -413 -31 -55 c-22 -38 -46 -64 -79 -85 -46 -28 -54 -30 -154 -30 -58 0 -145 4 -192 8 l-85 9 -22 -74 c-37 -128 -53 -247 -50 -374 l3 -119 85 -22 c197 -52 451 -56 631 -9 243 62 410 194 509 401 84 176 90 246 90 1083 l0 682 -559 0 -560 0 -13 -57z" fill="#cbcbcb"/>
<path d="M575 3600 c-11 -4 -80 -68 -152 -142 -95 -96 -133 -141 -133 -158 0 -18 78 -103 310 -335 266 -266 310 -315 310 -341 0 -25 -41 -70 -305 -329 -213 -210 -307 -309 -311 -328 -6 -26 5 -40 139 -174 134 -135 147 -145 174 -139 19 5 166 145 475 454 401 402 447 451 454 487 5 26 2 52 -7 76 -10 27 -140 164 -454 482 -242 245 -449 447 -460 450 -11 3 -29 2 -40 -3z" fill="#cbcbcb"/>
<path d="M3270 3603 c-22 -8 -889 -874 -906 -905 -18 -35 -18 -92 1 -132 8 -17 213 -229 454 -470 408 -407 441 -437 469 -434 25 2 60 31 167 137 116 116 135 139 135 166 0 28 -33 64 -295 324 -163 161 -300 301 -305 311 -6 10 -10 27 -10 36 0 10 134 152 305 324 283 284 305 308 305 340 0 32 -13 48 -132 167 -129 127 -156 147 -188 136z" fill="#cbcbcb"/>
<path d="M12192 1971 c-45 -29 -72 -77 -72 -131 0 -74 37 -119 113 -141 72 -21 158 39 172 120 8 49 -21 121 -60 147 -41 27 -114 29 -153 5z m143 -63 c79 -94 -45 -224 -134 -140 -38 35 -46 77 -24 122 32 63 113 72 158 18z" fill="#cbcbcb"/>
<path d="M12212 1844 c2 -43 8 -69 16 -72 7 -2 12 5 12 17 0 31 16 34 34 6 9 -14 24 -25 32 -25 15 0 15 3 -1 26 -12 19 -14 29 -5 39 6 8 10 26 8 42 -3 26 -7 28 -51 31 l-48 3 3 -67z m66 23 c2 -10 -3 -17 -12 -17 -18 0 -29 16 -21 31 9 14 29 6 33 -14z" fill="#cbcbcb"/>
<path d="M1108 1452 c-115 -115 -138 -143 -138 -167 0 -26 59 -88 448 -476 246 -246 457 -452 469 -458 30 -15 89 -14 121 3 15 8 226 214 470 458 382 383 442 448 442 473 0 24 -23 53 -138 167 -101 101 -144 138 -162 138 -18 0 -97 -73 -330 -305 -243 -243 -312 -306 -338 -311 -33 -7 -39 -1 -346 305 -236 235 -318 311 -336 311 -18 0 -61 -37 -162 -138z" fill="#cbcbcb"/>
<path d="M8233 1135 c-13 -19 -23 -37 -23 -40 0 -3 10 -5 23 -5 14 0 30 12 45 35 12 19 22 37 22 40 0 3 -10 5 -22 5 -15 0 -31 -12 -45 -35z" fill="#cbcbcb"/>
<path d="M4970 1141 c0 -15 6 -21 21 -21 25 0 22 33 -4 38 -12 2 -17 -3 -17 -17z" fill="#cbcbcb"/>
<path d="M6097 1153 c-14 -13 -6 -33 13 -33 13 0 20 7 20 20 0 19 -20 27 -33 13z" fill="#cbcbcb"/>
<path d="M8635 1141 c-98 -45 -132 -144 -82 -241 42 -84 136 -119 218 -82 24 10 52 28 62 40 18 19 18 20 -4 36 -20 14 -24 13 -47 -4 -16 -13 -40 -20 -68 -20 -85 0 -137 84 -100 162 30 62 109 82 164 41 27 -20 30 -20 50 -4 l23 17 -28 26 c-53 51 -119 61 -188 29z" fill="#cbcbcb"/>
<path d="M9490 1131 c0 -28 3 -31 31 -31 27 0 30 3 27 28 -2 21 -9 28 -30 30 -25 3 -28 0 -28 -27z" fill="#cbcbcb"/>
<path d="M9620 985 l0 -175 30 0 30 0 0 175 0 175 -30 0 -30 0 0 -175z" fill="#cbcbcb"/>
<path d="M9757 1154 c-4 -4 -7 -18 -7 -31 0 -20 5 -23 36 -23 33 0 35 2 32 28 -2 20 -9 28 -28 30 -14 2 -29 0 -33 -4z" fill="#cbcbcb"/>
<path d="M10950 985 l0 -175 30 0 30 0 0 175 0 175 -30 0 -30 0 0 -175z" fill="#cbcbcb"/>
<path d="M11867 1153 c-4 -3 -7 -82 -7 -175 l0 -168 30 0 30 0 0 175 0 175 -23 0 c-13 0 -27 -3 -30 -7z" fill="#cbcbcb"/>
<path d="M11997 1154 c-4 -4 -7 -83 -7 -176 l0 -168 35 0 35 0 -2 173 -3 172 -25 3 c-14 2 -29 0 -33 -4z" fill="#cbcbcb"/>
<path d="M4342 1010 l3 -140 30 -30 c38 -38 88 -47 137 -27 62 26 72 53 76 204 l4 133 -26 0 -26 0 0 -134 c0 -133 0 -135 -26 -155 -15 -12 -37 -21 -50 -21 -69 0 -84 35 -84 190 0 115 -1 120 -21 120 -20 0 -20 -4 -17 -140z" fill="#cbcbcb"/>
<path d="M6420 1085 l0 -66 -21 20 c-40 37 -117 31 -158 -13 -46 -49 -44 -136 5 -187 38 -39 83 -46 134 -21 31 15 40 16 40 6 0 -8 9 -14 20 -14 19 0 20 7 20 170 0 163 -1 170 -20 170 -18 0 -20 -7 -20 -65z m-22 -91 c25 -28 30 -88 9 -115 -17 -23 -52 -39 -82 -39 -36 0 -85 50 -85 87 1 91 99 134 158 67z" fill="#cbcbcb"/>
<path d="M7070 1090 l0 -60 -25 16 c-31 20 -99 20 -131 0 -64 -43 -73 -156 -16 -207 44 -39 93 -47 137 -20 28 16 35 17 35 6 0 -9 10 -15 25 -15 l25 0 0 170 0 170 -25 0 c-24 0 -25 -3 -25 -60z m-47 -72 c35 -18 46 -40 47 -86 0 -107 -140 -129 -168 -27 -23 82 51 151 121 113z" fill="#cbcbcb"/>
<path d="M7440 1027 c0 -107 -2 -126 -18 -140 -21 -20 -45 -21 -73 -6 -16 8 -25 7 -40 -7 -19 -17 -19 -18 3 -41 17 -18 32 -23 75 -23 44 0 58 5 85 29 l33 29 3 141 4 141 -36 0 -36 0 0 -123z" fill="#cbcbcb"/>
<path d="M10510 1095 c0 -54 -1 -55 -22 -44 -27 14 -90 14 -118 -1 -85 -45 -75 -198 15 -236 43 -18 63 -18 98 0 15 8 27 11 27 5 0 -5 16 -9 35 -9 l35 0 0 170 0 170 -35 0 -35 0 0 -55z m-13 -108 c7 -7 15 -27 19 -44 5 -26 1 -37 -19 -57 -33 -33 -71 -33 -102 -1 -54 53 -9 134 65 119 14 -3 31 -11 37 -17z" fill="#cbcbcb"/>
<path d="M11194 1133 c3 -10 32 -85 65 -168 l58 -150 38 0 38 0 63 165 c35 90 64 166 64 168 0 2 -16 2 -36 0 l-37 -3 -45 -123 c-24 -68 -48 -120 -52 -115 -4 4 -26 61 -50 126 l-43 117 -34 0 c-28 0 -33 -3 -29 -17z" fill="#cbcbcb"/>
<path d="M4765 1063 c-11 -3 -28 -12 -37 -21 -16 -14 -18 -14 -18 1 0 11 -8 17 -25 17 l-25 0 0 -125 c0 -118 1 -125 20 -125 18 0 20 7 20 85 0 78 2 88 25 110 29 30 64 32 96 6 21 -17 24 -29 27 -110 4 -83 6 -91 24 -91 19 0 20 6 16 100 -3 91 -5 102 -28 124 -27 25 -62 36 -95 29z" fill="#cbcbcb"/>
<path d="M5450 1059 c-19 -4 -47 -21 -62 -38 -23 -26 -28 -40 -28 -85 0 -44 5 -60 25 -85 45 -53 121 -64 180 -25 20 13 23 20 14 30 -9 11 -15 11 -32 -1 -33 -23 -81 -19 -116 11 -55 46 -44 54 74 54 117 0 117 0 89 70 -23 57 -78 83 -144 69z m85 -54 c46 -45 35 -55 -60 -55 -95 0 -103 8 -60 54 32 35 86 36 120 1z" fill="#cbcbcb"/>
<path d="M5761 1059 c-13 -5 -30 -17 -37 -27 -12 -16 -13 -15 -14 6 0 15 -6 22 -20 22 -19 0 -20 -7 -20 -130 0 -123 1 -130 20 -130 18 0 20 7 20 84 0 94 20 136 66 136 17 0 24 6 24 19 0 26 -10 31 -39 20z" fill="#cbcbcb"/>
<path d="M5909 1059 c-15 -6 -32 -23 -39 -39 -17 -40 6 -75 64 -100 24 -10 46 -26 50 -35 16 -42 -51 -61 -89 -25 -14 13 -25 16 -35 10 -12 -7 -10 -13 10 -35 21 -22 31 -25 74 -23 40 2 53 8 69 30 32 43 15 76 -55 111 -63 30 -75 57 -37 78 17 9 26 7 48 -8 32 -24 55 -20 41 7 -7 13 -67 45 -74 39 -1 0 -13 -5 -27 -10z" fill="#cbcbcb"/>
<path d="M6614 1058 c-91 -23 -117 -155 -45 -220 40 -35 105 -39 145 -7 l26 20 0 -20 c0 -14 6 -21 20 -21 19 0 20 7 20 125 0 118 -1 125 -20 125 -13 0 -20 -7 -20 -20 0 -21 0 -21 -21 -1 -24 23 -64 30 -105 19z m86 -43 c40 -21 56 -72 36 -118 -39 -95 -166 -68 -166 36 0 45 12 67 45 85 28 16 51 15 85 -3z" fill="#cbcbcb"/>
<path d="M7654 1054 c-58 -20 -84 -58 -84 -122 0 -48 4 -58 33 -87 44 -44 91 -53 149 -27 68 30 97 107 64 170 -33 63 -95 89 -162 66z m69 -53 c49 -19 55 -106 8 -130 -30 -16 -52 -13 -78 11 -33 30 -31 80 3 107 30 24 34 24 67 12z" fill="#cbcbcb"/>
<path d="M7930 1057 c-72 -24 -64 -103 13 -136 49 -21 63 -43 41 -62 -11 -9 -21 -9 -39 -1 -14 7 -25 16 -25 20 0 5 -11 7 -25 4 -31 -6 -32 -22 -2 -50 35 -33 119 -31 152 3 44 44 26 94 -46 124 -48 19 -63 43 -35 54 7 3 23 -1 34 -9 13 -9 28 -11 42 -6 l22 8 -23 26 c-30 32 -64 40 -109 25z" fill="#cbcbcb"/>
<path d="M8200 1059 c-43 -9 -87 -56 -96 -103 -10 -57 26 -121 82 -142 37 -14 51 -15 83 -5 49 14 68 35 51 56 -9 11 -17 12 -30 5 -30 -16 -85 -12 -103 8 -10 10 -17 22 -17 25 0 4 41 7 90 7 l90 0 0 40 c0 73 -72 126 -150 109z m80 -69 c30 -30 17 -40 -51 -40 -65 0 -78 16 -37 44 31 22 64 20 88 -4z" fill="#cbcbcb"/>
<path d="M8991 1062 c-59 -9 -101 -62 -101 -129 0 -105 116 -166 204 -107 41 26 18 44 -48 37 -47 -5 -56 -3 -77 18 l-24 24 98 3 c96 3 97 3 97 28 0 32 -22 85 -43 102 -20 17 -74 29 -106 24z m69 -72 c30 -30 17 -40 -51 -40 -65 0 -78 16 -37 44 31 22 64 20 88 -4z" fill="#cbcbcb"/>
<path d="M9280 1059 c-43 -9 -87 -56 -95 -103 -9 -43 17 -100 58 -130 38 -28 106 -28 143 0 36 27 40 40 14 54 -16 8 -25 7 -42 -5 -30 -20 -50 -19 -82 6 -34 27 -35 71 -1 104 29 29 36 30 82 9 32 -16 35 -16 51 0 16 16 15 19 -12 41 -34 27 -67 34 -116 24z" fill="#cbcbcb"/>
<path d="M9979 1060 c-67 -19 -99 -60 -99 -127 0 -70 62 -133 131 -133 36 0 90 32 110 64 35 57 18 143 -35 176 -30 19 -77 28 -107 20z m84 -82 c9 -11 17 -31 17 -45 0 -29 -42 -73 -70 -73 -29 0 -70 44 -70 75 0 14 11 37 26 51 29 30 67 27 97 -8z" fill="#cbcbcb"/>
<path d="M10733 1059 c-58 -12 -93 -59 -93 -126 0 -105 116 -166 204 -107 41 26 18 44 -48 37 -47 -5 -56 -3 -77 18 l-24 24 98 3 c96 3 97 3 97 28 0 85 -71 141 -157 123z m77 -69 c30 -30 17 -40 -51 -40 -65 0 -78 16 -37 44 31 22 64 20 88 -4z" fill="#cbcbcb"/>
<path d="M11620 1062 c-97 -15 -133 -154 -58 -224 24 -22 40 -28 75 -28 24 0 54 5 66 11 16 9 22 9 25 0 2 -6 17 -11 33 -11 l29 0 0 125 0 125 -30 0 c-16 0 -30 -5 -30 -11 0 -7 -7 -8 -17 -4 -37 15 -69 21 -93 17z m93 -84 c24 -28 21 -65 -8 -93 -39 -39 -97 -29 -115 21 -30 78 69 136 123 72z" fill="#cbcbcb"/>
<path d="M12221 1062 c-59 -9 -101 -62 -101 -129 0 -106 122 -168 201 -104 20 16 22 21 10 35 -10 12 -17 14 -25 6 -17 -17 -91 -12 -109 8 -10 10 -17 22 -17 25 0 4 43 7 95 7 95 0 95 0 95 25 0 33 -22 86 -43 103 -20 17 -74 29 -106 24z m69 -72 c30 -30 17 -40 -51 -40 -65 0 -78 16 -37 44 31 22 64 20 88 -4z" fill="#cbcbcb"/>
<path d="M4970 935 c0 -118 1 -125 20 -125 19 0 20 7 20 125 0 118 -1 125 -20 125 -19 0 -20 -7 -20 -125z" fill="#cbcbcb"/>
<path d="M5074 1044 c3 -9 28 -65 54 -125 39 -89 51 -109 68 -109 12 0 24 8 27 18 2 9 25 66 51 125 43 102 44 108 23 105 -17 -2 -30 -24 -63 -103 -39 -91 -43 -98 -52 -75 -51 132 -76 180 -94 180 -14 0 -18 -5 -14 -16z" fill="#cbcbcb"/>
<path d="M6090 935 c0 -118 1 -125 20 -125 19 0 20 7 20 125 0 118 -1 125 -20 125 -19 0 -20 -7 -20 -125z" fill="#cbcbcb"/>
<path d="M9490 935 l0 -125 30 0 30 0 0 125 0 125 -30 0 -30 0 0 -125z" fill="#cbcbcb"/>
<path d="M9750 935 l0 -125 35 0 35 0 0 125 0 125 -35 0 -35 0 0 -125z" fill="#cbcbcb"/>
</g>
</svg>